<?xml version="1.0" standalone="no"?>
<!DOCTYPE svg PUBLIC "-//W3C//DTD SVG 1.1//EN" "http://www.w3.org/Graphics/SVG/1.1/DTD/svg11.dtd" >
<svg xmlns="http://www.w3.org/2000/svg">
<metadata>
Created by FontForge 20120731 at Mon Mar 13 14:32:27 2017
 By admin
</metadata>
<defs>
<font id="iconfont" horiz-adv-x="1024" >
  <font-face 
    font-family="iconfont"
    font-weight="500"
    font-stretch="normal"
    units-per-em="1024"
    panose-1="2 0 6 3 0 0 0 0 0 0"
    ascent="896"
    descent="-128"
    x-height="792"
    bbox="0 -212 1030 896"
    underline-thickness="0"
    underline-position="0"
    unicode-range="U+0078-EC65"
  />
<missing-glyph 
 />
    <glyph glyph-name=".notdef" 
 />
    <glyph glyph-name=".notdef" 
 />
    <glyph glyph-name=".null" horiz-adv-x="0" 
 />
    <glyph glyph-name="nonmarkingreturn" horiz-adv-x="341" 
 />
    <glyph glyph-name="x" unicode="x" horiz-adv-x="1001" 
d="M281 543q-27 -1 -53 -1h-83q-18 0 -36.5 -6t-32.5 -18.5t-23 -32t-9 -45.5v-76h912v41q0 16 -0.5 30t-0.5 18q0 13 -5 29t-17 29.5t-31.5 22.5t-49.5 9h-133v-97h-438v97zM955 310v-52q0 -23 0.5 -52t0.5 -58t-10.5 -47.5t-26 -30t-33 -16t-31.5 -4.5q-14 -1 -29.5 -0.5
t-29.5 0.5h-32l-45 128h-439l-44 -128h-29h-34q-20 0 -45 1q-25 0 -41 9.5t-25.5 23t-13.5 29.5t-4 30v167h911zM163 247q-12 0 -21 -8.5t-9 -21.5t9 -21.5t21 -8.5q13 0 22 8.5t9 21.5t-9 21.5t-22 8.5zM316 123q-8 -26 -14 -48q-5 -19 -10.5 -37t-7.5 -25t-3 -15t1 -14.5
t9.5 -10.5t21.5 -4h37h67h81h80h64h36q23 0 34 12t2 38q-5 13 -9.5 30.5t-9.5 34.5q-5 19 -11 39h-368zM336 498v228q0 11 2.5 23t10 21.5t20.5 15.5t34 6h188q31 0 51.5 -14.5t20.5 -52.5v-227h-327z" />
    <glyph glyph-name="gengduo" unicode="&#xe601;" horiz-adv-x="1000" 
d="M515 317zM408 317.5v3.5q0 45 31.5 76.5t76 31.5t76 -31.5t31.5 -76.5v-3.5v-3.5q0 -45 -31.5 -76.5t-76 -31.5t-76 31.5t-31.5 76.5v3.5zM186 317zM79 317.5v3.5q0 45 31.5 76.5t76 31.5t76 -31.5t31.5 -76.5v-3.5v-3.5q0 -45 -31.5 -76.5t-76 -31.5t-76 31.5
t-31.5 76.5v3.5zM843 317zM736 317.5v3.5q0 45 31.5 76.5t76 31.5t76 -31.5t31.5 -76.5v-3.5v-3.5q0 -45 -31.5 -76.5t-76 -31.5t-76 31.5t-31.5 76.5v3.5z" />
    <glyph glyph-name="jiaju" unicode="&#xe607;" 
d="M362 440h301q31 0 53 22t22 53v244q0 31 -22 53t-53 22h-301q-31 0 -53 -22t-22 -53v-244q0 -31 22 -53t53 -22v0zM344 753q0 10 7 17t17 7h288q10 0 17.5 -7t7.5 -17v-233q0 -10 -7.5 -17t-17.5 -7h-288q-10 0 -17 7t-7 17v233zM885 545h-65q-32 0 -57 -23.5t-25 -53.5
v-89q-13 4 -24 4h-402q-12 0 -24 -4v89q0 32 -21.5 54.5t-51.5 22.5h-66q-33 0 -60 -23.5t-27 -53.5v-390q0 -31 27.5 -59.5t59.5 -28.5h82v-56h56v56h450v-56h56v56h92q31 0 54 27.5t23 60.5v390q0 32 -23 54.5t-54 22.5v0zM288 303q0 10 7 17t17 7h402q10 0 17 -7t7 -17
v-64q0 -10 -7 -17t-17 -7h-402q-10 0 -17 7t-7 17v64zM906 82q0 -13 -7 -24.5t-14 -11.5h-736q-9 0 -20 12.5t-11 23.5v386q0 9 10 17.5t21 8.5h61q9 0 15.5 -8t6.5 -18v-313h562v75v0v121v0v117q0 9 10.5 17.5t21.5 8.5h59q9 0 15 -8t6 -18v-386zM906 82z" />
    <glyph glyph-name="xiangji" unicode="&#xe608;" 
d="M244 625h-144v-78l144 48v30zM511.5 447q-72.5 0 -124 -51.5t-51.5 -124t51.5 -124t124 -51.5t124 51.5t51.5 124t-51.5 124t-124 51.5zM959 574h-304v75h-284v-75q-31 1 -57 0q-11 0 -25 -2.5t-22 -5.5l-8 -2l-196 -63v-550q895 1 896 0v623zM511.5 15q-106.5 0 -182 75
t-75.5 181.5t75.5 181.5t182 75t181.5 -75t75 -181.5t-75 -181.5t-181.5 -75z" />
    <glyph glyph-name="xinyongqia" unicode="&#xe60d;" 
d="M777 478h-518q-5 0 -8.5 -3.5t-3.5 -8.5v-53h541v53q0 5 -3 8.5t-8 3.5zM247 122q0 -5 3.5 -8.5t8.5 -3.5h518q5 0 8 3.5t3 8.5v192h-541v-192zM548 206h164q9 0 9 -9t-9 -9h-164q-8 0 -8 9t8 9zM854 747h-683q-44 0 -75 -31t-31 -75v-683q0 -44 31 -75t75 -31h683
q44 0 75 31t31 75v683q0 44 -31 75t-75 31zM832 122q0 -23 -16 -40t-39 -17h-518q-23 0 -39.5 17t-16.5 40v344q0 24 16.5 41t39.5 17h518q23 0 39 -17t16 -41v-344z" />
    <glyph glyph-name="tubiao4" unicode="&#xe6e4;" 
d="M817.5 -108q-33.5 0 -57.5 24t-24 58t24 57.5t57.5 23.5t57.5 -23.5t24 -57.5t-24 -58t-57.5 -24zM817.5 18q-18.5 0 -31.5 -13t-13 -31t13 -31t31.5 -13t31 13t12.5 31t-12.5 31t-31 13zM449.5 -108q-33.5 0 -57.5 24t-24 58t24 57.5t57.5 23.5t57.5 -23.5t24 -57.5
t-24 -58t-57.5 -24zM449 18q-18 0 -31 -13t-13 -31t13 -31t31 -13t31 13t13 31t-13 31t-31 13zM893 79h-582q-10 0 -15.5 8.5t-2.5 17.5l54 143l-143 422h-121q-8 0 -13.5 5.5t-5.5 13.5t5.5 13.5t13.5 5.5h135q13 0 17 -13l150 -441q2 -6 0 -13l-47 -124h555q8 0 13.5 -5.5
t5.5 -13t-5.5 -13.5t-13.5 -6zM836 229h-469q-8 0 -13.5 5.5t-5.5 13.5t5.5 13.5t13.5 5.5h456l92 290h-655q-8 0 -13.5 5.5t-5.5 13.5t5.5 13.5t13.5 5.5h681q10 0 15 -8q6 -8 3 -17l-105 -328q-4 -13 -18 -13z" />
    <glyph glyph-name="llmainpageback" unicode="&#xe600;" 
d="M481 596zM476 637zM369 297l381 380q10 10 10 24t-10 24l-12 11q-10 10 -23.5 10t-23.5 -10l-417 -415q-10 -10 -10 -24t10 -24l417 -415q10 -10 23.5 -10t23.5 10l12 12q10 10 10 23.5t-10 23.5z" />
    <glyph glyph-name="iconfontyoujiantou" unicode="&#xe630;" 
d="M512 749q-91 0 -174 -35.5t-143.5 -95.5t-96 -143t-35.5 -174t35.5 -174t96 -143t143.5 -95.5t174 -35.5t174 35.5t143 95.5t95.5 143t35.5 174t-35.5 174t-95.5 143t-143 95.5t-174 35.5zM724 281q0 -1 -1 -3q-1 0 -1 -1q-3 -6 -6 -9v0h-1q-1 -2 -2 -3l-262 -252
q-14 -14 -34 -14q-22 0 -36 15q-15 15 -14.5 35.5t15.5 35.5l226 217l-227 215q-15 14 -15.5 34.5t13.5 35.5q15 16 36 16q20 0 35 -14l264 -250q12 -11 15 -27t-5 -31z" />
    <glyph glyph-name="yue" unicode="&#xe605;" 
d="M867 403q-65 65 -155 78v92v0v2q0 44 -88 71q-80 24 -191.5 24t-191.5 -24q-88 -27 -88 -71q0 -3 1 -6h-1v-67q-14 -6 -27 -13q-47 -27 -47 -60v-6v0v-102v0q0 -22 19 -40q18 -17 54 -30v-86v0q0 -22 21 -42q32 -30 106 -48t150 -18q9 0 19 1q15 -22 33 -41
q80 -79 193 -79t193 79.5t80 192.5t-80 193zM184 483v46q21 -15 57 -26q80 -24 191.5 -24t191.5 24q36 11 58 26v-46h-8q-113 0 -193 -80q-7 -7 -13 -14q-87 -4 -168 14.5t-108 44.5q-8 7 -8 12v0v21v0v2zM250 617q75 23 182.5 23t182.5 -23q34 -10 50.5 -22t16.5 -20.5
t-16.5 -20.5t-50.5 -22q-75 -23 -182.5 -23t-182.5 23q-34 10 -50.5 22t-16.5 20.5t16.5 20.5t50.5 22zM153 469v-9h1q0 -18 17 -34q31 -29 108 -48.5t162 -19.5q-110 -13 -204 7q-81 16 -116 47q-12 11 -12 17q0 19 44 40zM119 303q-8 8 -10 16v0v64q43 -32 122 -48
q59 -12 125 -12q35 0 71 4q-17 -37 -23 -77q-89 -5 -171 10q-85 16 -114 43zM402 192q-53 -1 -103.5 11t-82.5 30q71 -14 153 -14q16 0 33 1q-1 -5 -1 -10q0 -9 1 -18zM193 145q-10 10 -11 19h1v55q35 -26 96 -42q56 -15 113 -15h14q7 -39 25 -75q-72 0 -141.5 17t-96.5 41z
M674.5 -32q-100.5 0 -171.5 71t-71 171.5t71 171.5t171.5 71t171.5 -71t71 -171.5t-71 -171.5t-171.5 -71zM754 363l-48 -89q-20 -36 -24 -48h-1q-13 29 -72 137h-45l84 -145h-69v-32h81v-44h-81v-33h81v-64h40v64h79v33h-79v44h79v32h-68l86 145h-43z" />
    <glyph glyph-name="jinggao" unicode="&#xe646;" 
d="M513 749q-91 0 -174 -35.5t-143 -95.5t-95.5 -142.5t-35.5 -174t35.5 -174t95.5 -142.5t143 -95.5t174 -35.5t173.5 35.5t142.5 95.5t95.5 142.5t35.5 174t-35.5 174t-95.5 142.5t-142.5 95.5t-173.5 35.5v0zM513 -90q-107 0 -197 52.5t-142.5 142.5t-52.5 196.5
t52.5 196.5t142.5 142.5t196.5 52.5t196.5 -52.5t142.5 -142.5t52.5 -196.5t-52.5 -196.5t-142.5 -142.5t-196 -52.5v0zM460 43v124h113v-124h-113v0zM460 206v336h113v-336h-113v0zM460 206z" />
    <glyph glyph-name="yingshijinqu" unicode="&#xe65b;" 
d="M933 746h-822q-13 0 -21.5 -8.5t-8.5 -21.5v-686q0 -12 8.5 -21t21.5 -9h822q13 0 21.5 9t8.5 21v686q0 13 -8.5 21.5t-21.5 8.5v0zM217 136h-68v68h68v-68zM217 272h-68v67h68v-67zM217 407h-68v68h68v-68zM217 543h-68v68h68v-68zM411 169v408l270 -204zM895 136h-68
v68h68v-68zM895 272h-68v67h68v-67zM895 407h-68v68h68v-68zM895 543h-68v68h68v-68zM895 543z" />
    <glyph glyph-name="baoji" unicode="&#xe615;" horiz-adv-x="1026" 
d="M953 510v-159l33 -34l-70 -73l-70 71l48 44v126q-292 -121 -317 -132q-33 -15 -61.5 -15.5t-61.5 12.5q-285 107 -367 146q-54 26 -55 44.5t56 40.5q53 20 183.5 68.5t171.5 64.5q32 13 47 17.5t36.5 3.5t44.5 -13q41 -17 184 -72.5t193 -76.5q25 -10 36 -18.5t8.5 -15.5
t-6.5 -11t-17 -10t-16 -8v0zM587 290q25 10 89 40t101 46v-251q-4 -4 -11.5 -11t-32.5 -24.5t-53 -30.5t-72.5 -24t-91.5 -11q-149 0 -256 84l-19 17v234q27 -11 196 -69q39 -14 77 -15t73 15v0zM587 290z" />
    <glyph glyph-name="672jingsai" unicode="&#xea16;" 
d="M642 15h-236q-21 -2 -40 -12t-31 -22.5t-20.5 -25.5t-12.5 -21t-4 -9h457q-6 22 -20 39.5t-29.5 26.5t-30 15t-23.5 7zM954 607h-141v69h-584l1 -62l-164 1q-2 -54 23.5 -108.5t63 -93.5t76 -69.5t64.5 -46.5t27 -16q22 -32 63.5 -72t69.5 -63t30 -24q-16 -19 -32.5 -39
t-24 -30.5l-7.5 -10.5h222q-9 13 -30 31t-35.5 30t-11.5 13q22 10 66.5 52t77 78t32.5 37q69 41 116.5 90t66 88.5t27 73.5t6.5 53zM132 560h105q1 -14 4 -37t15.5 -77t28.5 -87v0q-5 3 -14.5 9.5t-34 27t-44 42.5t-37.5 55t-23 67zM581 292h-131v17h21q17 0 23 5.5t6 25.5
v190h-50v17q41 6 69 24h15v-231q0 -21 5 -26t23 -5h19v-17zM761 359q16 33 27.5 83.5t14.5 83.5l3 34h101q-4 -34 -20.5 -67t-37.5 -56t-41 -41.5t-33 -27.5z" />
    <glyph glyph-name="jianjian" unicode="&#xe6dd;" 
d="M771 321q-1 2 -1 4l-1 2q0 3 -1 5l-3 6q-3 4 -6 7l-3 3l-404 404q-11 11 -28 10.5t-28 -11.5t-12 -28q0 -16 11 -27l379 -379l-379 -379q-11 -11 -11 -28q1 -16 12 -27q12 -12 29 -12q16 0 27 11l403 403q3 2 4 3q3 4 7 9q1 3 2 5t2 5v2q0 2 1 5v3v4z" />
    <glyph glyph-name="iconfontyimaojia" unicode="&#xe60a;" 
d="M639 807.5q-7 9.5 -16 2.5l-74 -55l23 41q5 9 -5 14.5t-15 -3.5l-43 -76v4v3v64q0 10 -11.5 10t-11.5 -10v-64q-1 -2 -1 -3v-6l-44 78q-5 9 -15 3.5t-5 -14.5l24 -41l-75 55q-9 7 -15.5 -2.5t2.5 -16.5l116 -85l12 -23v-36q-3 -10 -17 -10q-8 0 -13.5 4t-5.5 9t-3.5 8
t-8 3t-8 -3t-3.5 -8q0 -15 12 -25.5t30 -10.5q9 0 17 4v-731q-50 -2 -84.5 -16t-34.5 -34t38.5 -34.5t93 -14.5t93 14.5t38.5 34.5t-34.5 34t-85.5 16v731q9 -4 18 -4q17 0 29 10.5t12 25.5q0 5 -3 8t-8 3t-8.5 -3t-3.5 -8t-5.5 -9t-12.5 -4q-13 0 -18 9v39l12 21l116 85
q9 7 2 16.5z" />
    <glyph glyph-name="shangjiantou" unicode="&#xec5f;" horiz-adv-x="1026" 
d="M0 78q0 -15 10.5 -25.5t25.5 -10.5t25 11l421 421q13 12 30.5 12t29.5 -12l421 -421q11 -11 25.5 -11t25 10.5t10.5 25.5t-10 25l-421 421q-34 34 -81 34t-80 -34l-422 -421q-10 -10 -10 -25z" />
    <glyph glyph-name="xiajiantou" unicode="&#xec65;" horiz-adv-x="1026" 
d="M1024 522q0 15 -10.5 25.5t-25 10.5t-25.5 -11l-421 -421q-12 -12 -29.5 -12t-30.5 12l-421 421q-10 11 -25 11t-25.5 -10.5t-10.5 -25.5t10 -25l422 -422q33 -33 80 -33t81 33l421 422q10 10 10 25z" />
    <glyph glyph-name="xinlangweibo" unicode="&#xe657;" horiz-adv-x="1025" 
d="M374 200q-15 -1 -25.5 -12.5t-10.5 -24.5t11 -21t26.5 -6t27 12.5t11.5 23.5t-11.5 21.5t-28.5 6.5v0zM427 215q-13 -9 -5 -22q7 -11 20 -1q12 10 5 21q-7 12 -20 2v0zM426 331q-84 -4 -142 -43.5t-58 -94.5q0 -56 58.5 -92.5t141.5 -32.5t142 48.5t59 100.5q0 54 -58 86
t-143 28v0zM502 145q-27 -35 -71.5 -44.5t-95.5 14.5q-14 7 -21.5 19.5t-7.5 21.5l-1 9v6t0.5 15t3.5 21t9.5 23t17 23t28 18.5t40.5 10.5q39 5 66.5 -9.5t37.5 -37.5t8.5 -48t-14.5 -42v0zM512 812q-104 0 -199 -40.5t-163.5 -109t-109 -163.5t-40.5 -199t40.5 -199
t109 -163.5t163.5 -109t199 -40.5t199 40.5t163.5 109t109 163.5t40.5 199t-40.5 199t-109 163.5t-163.5 109t-199 40.5v0zM726 168q-22 -47 -75 -80t-114.5 -46.5t-118.5 -9.5q-45 4 -84 13t-78 27.5t-64.5 52t-30.5 79.5q-1 7 -0.5 18.5t12.5 46.5t37 68q3 5 9 13t25.5 29
t39 39t47.5 37t55 28t47 9.5t31 -5.5t17.5 -16.5t8 -20.5t1.5 -22q-7 -21 -4.5 -30t25.5 -2q4 2 10.5 4.5t24.5 8t34 7.5t34 -1t29 -14q13 -14 14.5 -32t-4.5 -30l-5 -11q-1 -1 -1.5 -2t-1.5 -3.5t0 -5t5 -5t11 -4.5q10 -2 21.5 -7t25.5 -16.5t22.5 -26.5t8 -39t-13.5 -51v0
zM634 436q-7 0 -12.5 5t-5.5 12.5t5.5 13t12.5 5.5q3 1 7 1.5t15.5 0t22 -2.5t22.5 -9t20 -17.5t12.5 -29.5t1.5 -44v-2q-1 -7 -6.5 -11t-11.5 -4q-8 0 -13.5 5t-5.5 13l1 26q-5 51 -65 38v0zM827 338v0q-2 -14 -8.5 -18.5t-17.5 -4.5t-18.5 6.5t-7.5 17.5q0 6 1 12.5t3 9.5
l1 4q12 42 -8 88q-18 31 -49.5 47.5t-53 18.5t-29.5 -1l-24 -6q-11 0 -18.5 8t-7.5 19q0 20 19 26h0.5t1.5 0.5l1 0.5q52 10 91 1q23 -5 44.5 -16t42.5 -30t32.5 -44.5t15 -60.5t-10.5 -78v0zM827 338z" />
    <glyph glyph-name="dagouxuanzhong" unicode="&#xe670;" 
d="M0 -212h1024v1024zM640 -112l-204 203l72 71l132 -136l249 257l72 -72z" />
    <glyph glyph-name="iconfontren" unicode="&#xe613;" 
d="M789 188q-63 63 -145 92q43 22 78 56q87 87 87 210t-87 210t-210 87t-210 -87t-87 -210t87 -210q35 -34 78 -56q-82 -29 -145 -92q-109 -109 -115 -263h52q6 132 99 226q92 92 221 99q10 -1 20 -1t20 1q129 -7 221 -99q93 -94 99 -226h52q-6 154 -115 263zM267 546
q0 101 72 173t173 72t173 -72t72 -173q0 -96 -65 -166t-160 -78q-10 1 -20 1t-20 -1q-95 8 -160 78t-65 166z" />
    <glyph glyph-name="niao" unicode="&#xe684;" 
d="M502 589q-36 62 -82.5 98t-91.5 42.5t-88.5 -5t-77.5 -39t-56 -64.5l-73 -30l48 -37q-11 -48 -15.5 -90t-5.5 -71t5.5 -57t10.5 -42.5t17 -34t18 -25.5t20 -22q34 -39 88 -63.5t116.5 -32.5t126 -5.5t126.5 15.5q74 15 143 37t115 43t81 39.5t52 29.5l16 11
q-6 0 -17 -0.5t-46 2.5t-69.5 11t-83.5 29.5t-93.5 53t-94 85t-89.5 122.5zM343 37l17 -3l19 90l-18 4zM302 46l18 -4l18 90l-17 4z" />
    <glyph glyph-name="xiugaimima" unicode="&#xe67e;" 
d="M794 414h-501v101q0 91 64.5 155.5t155.5 64.5t155.5 -64.5t64.5 -155.5q0 -8 5.5 -14t14 -6t14.5 6t6 14q0 107 -76.5 183.5t-183.5 76.5t-183.5 -76.5t-76.5 -183.5v-101h-23q-25 0 -42.5 -18t-17.5 -43v-298q0 -25 17.5 -43t42.5 -18h564q25 0 42.5 18t17.5 43v298
q0 25 -17.5 43t-42.5 18zM814 55q0 -9 -6 -15t-14 -6h-564q-8 0 -14 6t-6 15v298q0 9 6 15t14 6h564q8 0 14 -6t6 -15v-298zM512.5 286q-15.5 0 -27 -11.5t-11.5 -26.5q0 -24 22 -35v-73q0 -7 5 -11.5t12 -4.5t11.5 4.5t4.5 11.5v73q22 11 22 35q0 15 -11.5 26.5t-27 11.5z
" />
    <glyph glyph-name="qqkongjian" unicode="&#xe766;" 
d="M667 453q-66 16 -140.5 19.5t-115.5 -0.5l-42 -5q56 -6 103 -16t67 -17l19 -7l-180 -154q85 -20 152 -16t108.5 12.5t41.5 10.5q-178 18 -201 33v0zM512 896q-104 0 -199 -40.5t-163.5 -109t-109 -163.5t-40.5 -199t40.5 -199t109 -163.5t163.5 -109t199 -40.5t199 40.5
t163.5 109t109 163.5t40.5 199t-40.5 199t-109 163.5t-163.5 109t-199 40.5zM784 423l-88 -109l8 -132v-7q0 -17 -12 -29.5t-30 -12.5v0q-8 0 -15 3l-130 49l-129 -49q-7 -3 -15 -3q-14 0 -25 8q-19 14 -17 37l8 136l-88 109q-15 18 -7.5 40t30.5 27l133 33l75 118
q12 20 35.5 20t35.5 -20l75 -118l133 -33q23 -5 30.5 -27t-7.5 -40z" />
    <glyph glyph-name="lvyou" unicode="&#xe603;" 
d="M398 337q-37 43 -58 103t-4 128q23 -10 40.5 -23.5t30.5 -34t22.5 -40t16 -50.5t10.5 -56t7 -66t4 -70.5t3.5 -81t4.5 -86.5h-31v62h-108q-4 0 -11.5 -1t-26 -4.5t-32.5 -8t-26 -13.5t-12 -19q0 -15 17.5 -28.5t53 -24.5t96.5 -17.5t141 -6.5q63 0 112.5 6t76.5 15
t44.5 20.5t23 20t5.5 15.5q0 11 -8.5 20.5t-34 17.5t-65.5 8h-61q-1 4 -1 10.5t1 28t4 44t11 56.5t19 66.5t30 72t43 76.5q43 -59 -30 -154q55 5 74.5 36t17.5 87q20 -10 28.5 -36t2.5 -87q24 15 37 43t4.5 63.5t-41.5 62.5q15 0 22 -1.5t16 -7.5t14 -18.5t9 -33.5
q13 11 15 29.5t-7 37t-24.5 34t-40 22.5t-50.5 0q-10 60 -72 77q-52 14 -91 -10q-22 -15 -22 -36q27 6 55 2.5t37 -18.5q-20 0 -32.5 -3.5t-28.5 -14.5t-23.5 -37.5t-7.5 -67.5q2 3 6 8q21 23 31.5 32.5t32 16t53.5 5.5q-20 -12 -41.5 -42t-44.5 -81t-38 -136t-15 -188h-46
q1 9 1 24t-1 61t-5.5 89.5t-15 100.5t-26.5 104t-43.5 91t-63.5 69q26 4 51 2t46.5 -10t44 -33t43.5 -67q3 19 3 37.5t-2 42t-11.5 42.5t-24.5 35t-41.5 23.5t-61.5 4.5q1 2 4.5 10t5 10t5.5 8t8 7.5t11.5 5.5t16.5 4.5t21.5 2t29 1t36.5 -2.5q-29 43 -74 56t-85.5 0.5
t-70.5 -44.5t-32 -73q-4 1 -10.5 2t-25.5 1t-36.5 -3t-39 -13t-37 -26.5t-26 -46t-9.5 -68.5q68 68 92 77q-94 -130 0 -216q1 27 4 49t5 34.5t8.5 26.5t9 17.5t11 15l8.5 11.5q0 -16 1 -27.5t4 -32t8 -35.5t15.5 -32.5t24.5 -29t36 -19.5t50 -9z" />
    <glyph glyph-name="shengdanfanhuidingbu" unicode="&#xe653;" horiz-adv-x="1031" 
d="M0 192h109v-314h83v314h109v70h-301v-70zM499 269q-83 0 -141 -58q-51 -61 -51 -147q0 -79 51 -141q52 -51 135 -51q86 0 134 58q51 61 51 147q0 79 -51 141q-51 51 -128 51zM877 262h-128v-384h83v135h45q55 0 109 32q44 45 44 96q-9 58 -48 89.5t-105 31.5zM858 77h-32
v121h38q70 0 70 -57q-5 -35 -22 -49.5t-54 -14.5zM864 576l-70 70l-32 -83l70 -70zM390 698l-32 83l-70 -71l32 -83zM627 691l71 -64l32 83l-64 64zM506 813v0l57 -58l32 83l-25 32q-26 26 -64 26v0q-41 0 -58 -26l-26 -25l32 -83zM954 384q5 0 9.5 1.5t12 5.5t10.5 6
q14 14 14 31t-14 26l-58 58l-32 -83l32 -32q13 -13 26 -13zM90 397l38 38l-32 83l-64 -64q-14 -14 -14 -31t14 -26.5t31 -9.5t27 10zM262 563l-38 83l-70 -64l38 -83z" />
    <glyph glyph-name="wofaqide" unicode="&#xe695;" 
d="M749 391l-32 1l163 -202l16 33h-102h-21v-20v-225l21 20h-143l21 -20v142q0 8 -6 14t-14.5 6t-14.5 -6t-6 -14v-142v-21h20h143h20v21v225l-20 -20h102h42l-26 33l-163 201l-15 19l-16 -18l-179 -203q-5 -6 -4.5 -14.5t6.5 -14t14.5 -5t14.5 7.5zM199 18q-30 0 -51 22
t-21 54v696l-21 -20h600q30 0 51.5 -22t21.5 -53v-364h40v364q0 48 -33 82t-80 34h-600h-20v-21v-696q0 -48 33 -82t80 -34h455v40h-455v0zM695 486q9 0 14.5 6t5.5 14t-5.5 14t-14.5 6h-466q-8 0 -14 -6t-6 -14t6 -14t14 -6h466zM697 608q9 0 15 5.5t6 14t-6 14.5t-15 6
h-466q-8 0 -14 -6t-6 -14.5t6 -14t14 -5.5h466z" />
    <glyph glyph-name="qita" unicode="&#xe606;" 
d="M885 467q0 -9 -6.5 -15.5t-15.5 -6.5h-286q-9 0 -15 6.5t-6 15.5v285q0 9 6 15.5t15 6.5h286q9 0 15.5 -6.5t6.5 -15.5v-285v0zM885 61q0 -9 -6.5 -15t-15.5 -6h-286q-9 0 -15 6t-6 15v286q0 9 6 15.5t15 6.5h286q9 0 15.5 -6.5t6.5 -15.5v-286v0zM499 61q0 -9 -6.5 -15
t-15.5 -6h-285q-9 0 -15.5 6t-6.5 15v286q0 9 6.5 15.5t15.5 6.5h285q9 0 15.5 -6.5t6.5 -15.5v-286zM334 610zM165 610q0 70 49.5 119.5t119.5 49.5t120 -49.5t50 -119.5t-50 -119.5t-120 -49.5t-119.5 49.5t-49.5 119.5z" />
    <glyph glyph-name="jita" unicode="&#xe604;" horiz-adv-x="1025" 
d="M1018 686q-3 8 -6 12t-7.5 7.5t-12 2.5t-17.5 -6l-9 -4q-23 18 -54 1l-47 -26q-36 -25 -32 -42q-74 -41 -216 -117t-211 -113q-17 -1 -33 2q-3 1 -7 2q-15 4 -23.5 23.5t-9.5 40.5q4 21 40 61q19 22 9 24q-12 2 -59 -10q-4 -4 -16 -12t-20.5 -21t-19.5 -42
q-2 -5 -5.5 -14t-5.5 -14q-16 -5 -46.5 -18t-39.5 -15q-55 -10 -87 -26q-35 -19 -56.5 -49.5t-25.5 -66.5q-1 -8 -1 -18v-8.5t1 -9.5q2 -18 7 -37q11 -35 34 -74q54 -82 113 -107q18 -7 36 -9h10h10q10 1 20 4q42 9 81 41q28 23 61 71q11 17 20 41q7 -3 14 -4q35 -7 78 21
q34 28 35 47q0 18 -34 -1q-16 -9 -51 -3q-4 6 -15 40q9 41 16 59l46 26q5 1 7 3v0q0 1 1 1v0h1q71 39 202 108.5t180 95.5q12 -15 52 13l46 26q16 8 23.5 22t4.5 27l3 2q20 11 22 21.5t-6 21.5zM246 329l4 7q4 7 9 -1l60 -93q5 -7 2 -14l-5 -8q-3 -6 -8 2l-60 93q-5 7 -2 14
zM213 101q0 -3 -2 -5l-20 -31q-5 -7 -10 1l-104 163q-5 8 -1 14l20 31q5 7 10 -1l101 -159l88 41q-7 25 9 44q5 6 12 8.5t16 -7t13 -36.5q-99 -54 -132 -63zM368 267l-3 -8q-4 -6 -9 1l-65 90q-5 7 -2 14l3 8q4 6 9 -1l65 -90q6 -7 2 -14z" />
    <glyph glyph-name="huanbao" unicode="&#xe915;" 
d="M632 78q-19 4 -40.5 11t-61.5 25t-75.5 40.5t-76.5 59.5t-71.5 80t-53 105t-27.5 132q-2 -8 -5.5 -23t-6.5 -61t1.5 -91t23.5 -107t54 -116q32 -49 73 -78.5t81.5 -36.5t75.5 -3t65 18q48 -4 87.5 -0.5t70.5 10.5t52 15t32.5 13.5t11.5 6.5q-32 -12 -83 -12t-78 3.5
t-49 8.5zM280 755q-33 -144 -12 -262q6 26 15.5 47t16.5 29l7 8q-28 -75 -15 -170q21 -54 54 -99q-1 46 9.5 87.5t20.5 59.5l10 18q-23 -106 14 -227q36 -35 81 -64q-4 20 -6.5 40t-3 37t0.5 32.5t2.5 28.5t3.5 24t4.5 19t4 14t3 9l1.5 3q-5 -116 57 -243q29 -14 58.5 -24
t43.5 -14l15 -3q2 5 4.5 14t6.5 37t4.5 56t-7 68t-24 76.5t-49.5 77t-79 73.5q-48 34 -90 72t-68.5 68t-46 55t-28.5 39l-8 14v0z" />
    <glyph glyph-name="dagou" unicode="&#xe675;" 
d="M512 896q-104 0 -199 -40.5t-163.5 -109t-109 -163.5t-40.5 -199t40.5 -198.5t109 -163t163.5 -109t199 -40.5t198.5 40.5t163 109t109 163t40.5 198.5t-40.5 199t-109 163.5t-163 109t-198.5 40.5zM854 484l-387 -387v0q-10 -9 -23 -9t-22 9v0l-252 252v0q-9 9 -9 22
t9.5 22.5t22.5 9.5t22 -9l229 -229l365 365v0q9 9 22 9t22.5 -9.5t9.5 -22.5t-9 -23v0z" />
    <glyph glyph-name="yuanquan" unicode="&#xe6ae;" 
d="M518 886q-101 0 -193.5 -39.5t-159 -106t-106 -159t-39.5 -193.5t39.5 -193.5t106 -159t159 -106t193.5 -39.5t193.5 39.5t159 106t106 159t39.5 193.5t-39.5 193.5t-106 159t-159 106t-193.5 39.5zM518 -67q-92 0 -176.5 36t-145 97t-96.5 145t-36 176.5t36 177
t96.5 145t145 96.5t176.5 36t176.5 -36t145 -96.5t96.5 -145t36 -177t-36 -176.5t-96.5 -145t-145 -97t-176.5 -36z" />
    <glyph glyph-name="tuichu" unicode="&#xe61f;" 
d="M191 86q-31 0 -51 22.5t-20 56.5v432q0 36 20 60t51 24h358q31 0 50.5 -24t19.5 -60v-50q0 -21 -18 -21q-8 0 -14.5 8t-6.5 17v46q0 15 -9 26t-22 11h-354q-13 0 -22 -11t-9 -26v-427q0 -15 9 -26t22 -11h354q13 0 22 11t9 26v49q0 22 17 22q10 0 16 -6.5t6 -15.5v-49
q0 -36 -19.5 -60t-50.5 -24h-358v0zM749 225q-9 0 -15.5 7t-6.5 16.5t6 16.5l85 90v0v0h-368q-9 0 -15.5 7t-6.5 16.5t6.5 16.5t15.5 7h368v0v0l-85 90q-6 7 -6 16.5t6.5 16.5t15.5 7t16 -7l121 -129q6 -7 6 -17q0 -11 -6 -18l-121 -129q-7 -7 -16 -7v0v0z" />
    <glyph glyph-name="shouhuodizhi" unicode="&#xe682;" 
d="M753 760q-47 46 -109.5 72t-131.5 26t-131.5 -25.5t-109.5 -72t-73.5 -108t-26.5 -129.5q0 -72 32 -138.5t90 -118.5l202 -180l17 -16l18 16l201 180q59 52 90.5 118.5t31.5 138.5q0 68 -26.5 129.5t-73.5 107.5v0zM775 406q-28 -57 -79 -103l-184 -164l-184 164
q-52 46 -79 103q-26 56 -26 117q0 118 84.5 201.5t204.5 83.5t204 -84q85 -83 85 -201q0 -61 -26 -117v0zM793 161q-7 7 -17 8t-18 -5t-9 -17q-2 -11 6 -21q20 -21 20 -44q0 -46 -70 -81q-79 -40 -193 -40t-193 40q-71 35 -71 81q0 22 20 44q9 9 7 21q-2 11 -10 17t-18 5
t-16 -8q-35 -37 -35 -79q0 -38 26.5 -70.5t72.5 -55.5q91 -46 217 -46t216 46q47 23 73 55.5t26 70.5q0 42 -34 79v0v0zM607 587v0q-39 38 -94.5 38t-95.5 -38v0q-39 -39 -39 -94q0 -54 39 -93q40 -39 95 -39t95 39q39 39 39 93q0 55 -39 94v0zM570 436q-24 -24 -58 -24
t-58 24t-24 58q0 33 24 57v0q24 24 58 24t58 -24v0q24 -24 24 -57q0 -34 -24 -58v0zM570 436z" />
    <glyph glyph-name="xiegui" unicode="&#xe671;" 
d="M875 811h-740q-20 0 -34.5 -14.5t-14.5 -34.5v-778q0 -21 14.5 -35.5t34.5 -14.5h740q20 0 34 14.5t14 35.5v778q0 20 -14 34.5t-34 14.5v0zM145 481h721v-215h-721v215zM145 743h721v-196h-721v196zM145 3v199h721v-199h-721v0zM736 649h69q7 0 12.5 5.5t5.5 12.5v22
q0 8 -5.5 13t-12.5 5h-69q-8 0 -13 -5t-5 -13v-22q0 -7 5 -12.5t13 -5.5v0zM736 649zM805 430h-69q-8 0 -13 -5t-5 -12v-22q0 -8 5 -13t13 -5h69q7 0 12.5 5t5.5 13v22q0 7 -5.5 12t-12.5 5v0zM805 430zM805 159h-69q-8 0 -13 -5t-5 -12v-22q0 -8 5 -13t13 -5h69q7 0 12.5 5
t5.5 13v22q0 7 -5.5 12t-12.5 5v0zM805 159z" />
    <glyph glyph-name="jinggao-copy" unicode="&#xe609;" 
d="M516 116q-20 0 -34.5 14t-14.5 34.5t14.5 35t35 14.5t35 -14.5t14.5 -35t-14.5 -34.5t-35.5 -14v0zM516 279q-17 0 -29 12t-12 29v307q0 17 12 29t29 12t29.5 -12t12.5 -29v-307q0 -17 -12.5 -29t-29.5 -12zM516.5 863q-97.5 0 -186 -38t-152.5 -102t-102 -152.5
t-38 -185.5t38 -185.5t102 -152.5t152.5 -102t186 -38t186 38t152.5 102t102 152.5t38 185.5t-38 185.5t-102 152.5t-152.5 102t-186 38zM516.5 -29q-112.5 0 -208 55.5t-151 151t-55.5 207.5t55.5 207.5t151 151t208 55.5t208 -55.5t151 -151t55.5 -207.5t-55.5 -207.5
t-151 -151t-208 -55.5z" />
    <glyph glyph-name="telphone" unicode="&#xe67c;" 
d="M728 832h-433h-7t-15 -3.5t-19 -9.5t-14.5 -19t-6.5 -31l-1 -769q1 -1 0 -7t2.5 -15.5t8 -19t17.5 -16t32 -6.5h439q3 0 7 0.5t14.5 3.5t18 8.5t14 18.5t6.5 30v772v0q1 36 -25 53q-15 10 -38 10zM449 801h125v-31h-125v31zM402.5 801q6.5 0 11 -4.5t4.5 -11t-4.5 -11
t-11 -4.5t-11 4.5t-4.5 11t4.5 11t11 4.5zM511 -2q-13 0 -22 9t-9 22t9 22t22 9t22 -9t9 -22t-9 -22t-22 -9zM731 122h-439v618h439v-618zM374 305q16 -17 39.5 -17t40.5 17l38 39l-28 26l-23 -27q-28 -25 -51 -3l-16 18q-11 11 -11 26.5t11 26.5l72 73q11 11 26.5 11
t26.5 -11l13 -14q19 -18 8 -42l32 -24q17 16 17 39.5t-17 40.5l-40 40q-16 17 -39.5 17t-40.5 -17l-98 -99q-17 -17 -17 -40.5t17 -39.5zM571 502l11 13q11 11 27 11t27 -11l13 -13q11 -11 11 -26.5t-11 -26.5l-65 -68q-11 -11 -26.5 -11t-26.5 11l-11 18q-15 11 -16.5 18.5
t2.5 14.5l-30 29q-16 -17 -16 -40.5t16 -39.5l40 -40q17 -17 40.5 -17t39.5 17l90 89q14 17 14 37t-7 32l-7 12l-40 40q-17 16 -40.5 16t-39.5 -16v0l-22 -23z" />
    <glyph glyph-name="diyongquan001" unicode="&#xe614;" 
d="M940 694q7 0 12 -5t6.5 -11.5t-1 -14t-9.5 -12.5q-6 -5 -10 -13t-4.5 -16.5t2 -17t10.5 -12.5q11 -6 16.5 -16.5t5.5 -20.5t-5.5 -19t-15.5 -13t-15 -11.5t-5.5 -16.5t4 -17.5t14 -14.5t14 -16t4 -20t-5 -18.5t-13.5 -9.5q-7 -2 -10.5 -8t-3.5 -14t3.5 -15.5t11 -10.5
t12 -12t5 -19t-2.5 -19t-9 -13q-19 -12 -19 -27t19 -29q4 -3 7.5 -11t3.5 -16t-4 -14t-14 -6h-53q-6 0 -6.5 1t1.5 3.5t5 5.5t5 7q5 14 0 24t-17 16q-8 4 -11.5 12.5t-3 17.5t3.5 16t9 10q8 3 12 11t4 17t-3 16.5t-9 10.5q-8 4 -12.5 12t-4.5 17.5t4 19t13 15.5q6 4 10 11
t4.5 15t-3 15.5t-12.5 12.5q-10 5 -14.5 14.5t-4.5 19.5t4.5 19t12.5 14q17 8 18.5 23.5t-2.5 28.5q-3 10 -12 18t-23 8h-475v78h557zM323 694v-79h-185v26q0 20 15.5 36.5t32.5 16.5h137zM813 570q8 0 12.5 -6.5t5 -14t-3.5 -15.5t-13 -11t-14.5 -10t-6.5 -15.5t4 -16.5
t17 -12q9 -4 14.5 -12t6 -16.5t-4 -16t-14.5 -10.5q-12 -3 -18.5 -11.5t-7 -17t5 -17.5t16.5 -13q10 -4 15 -12t5.5 -17t-3.5 -17t-12 -12q-25 -12 -26 -29t19 -27q9 -4 14.5 -12t6 -17.5t-3.5 -17t-13 -10.5q-12 -3 -18.5 -11t-7 -17t5 -18t17.5 -15q8 -4 11.5 -12.5
t2.5 -16.5t-5.5 -14t-12.5 -6h-518v496h524zM521 379l-2 1q-5 1 -7 4q-1 3 -9 12t-17 21t-17 23q-9 10 -11 14q-7 13 -14 13q-3 0 -5 -2q-7 -4 -12.5 -8.5t-10.5 -7.5q-10 -7 -3 -18q17 -20 30 -37q10 -13 21 -26q9 -13 11 -15q2 -4 -4 -4h-11q-5 0 -15 -1h-6q-6 0 -11 1
q-8 0 -13 -4t-3 -10q1 -4 1 -12v-12q0 -5 3 -5.5t7 -0.5h57q12 0 12 -5v-19q0 -5 -2 -5h-66h-2q-4 0 -6 -3q-2 -4 -3 -9t0 -9.5t1 -7.5q0 -13 13 -13h59q5 0 6 -1t1 -6q1 -5 1 -18q-1 -13 -1 -17q0 -11 13 -11h32q8 0 8 5v40q0 9 9 9h8q8 0 16 1h16h13q14 0 14 10v22
q0 9 -10 9h-57h-5q-5 0 -5 4q0 3 -0.5 7.5t-0.5 8.5t3.5 6t7.5 2h58q10 0 10 7v24q0 4 -3.5 8t-8.5 4h-34q-5 0 -10.5 1t-2.5 6q1 2 10 14q8 11 19 25q10 13 19 25t11 15q5 8 -6 19q-2 2 -8 6t-11 6t-8 2q-2 0 -3 -1q-4 -2 -9 -9q-2 -3 -10 -14q-7 -12 -16 -25
q-8 -11 -17 -23q-7 -11 -8 -13q-2 -3 -6 -3zM231 570v-496h-54q-22 0 -43.5 0.5t-29.5 0.5q-2 -1 -4 -1q-23 0 -33 9q-11 10 -11 38v143q0 11 3.5 16.5t14.5 7.5q4 0 10.5 3t13.5 9.5t12 17t5 25.5q0 23 -12.5 35.5t-25.5 14.5q-11 2 -16 6.5t-5 15.5v106v0q0 26 9 37.5
t39 11.5h127zM940 746h-557q-16 0 -30 -10q-13 10 -30 10h-137q-40 0 -71 -34q-28 -32 -28 -71v-25q-43 0 -65 -28q-17 -23 -17 -67v-106q0 -33 22 -53q14 -13 37 -18v-1v-4t-1 -1q-32 -6 -47 -30q-11 -18 -11 -44v-143q0 -50 27 -75q25 -23 68 -23h5h27q22 -1 45 -1h54
q16 0 29 9q13 -9 29 -9h518q35 0 54 29q12 17 15 37q2 21 -6 42l-4 8q11 -4 24 -4h53q38 0 57 29q12 18 12 42q0 18 -7 36q-5 11 -11 18q9 11 14 26q6 18 5 37q-1 21 -10 39q-3 7 -7 12q4 6 7 12q10 18 11 39v1q1 22 -9 43q-5 12 -14 22q9 8 15 19q13 21 13 46q0 23 -11 44
q-6 13 -16 23q10 11 14 25q7 21 3 41q-5 22 -20 38q-20 20 -49 20v0z" />
    <glyph glyph-name="heart" unicode="&#xe62f;" 
d="M1002 521q0 115 -81 196.5t-196 81.5q-118 0 -199 -84q-81 84 -198 84q-115 0 -196 -81.5t-81 -196.5q0 -110 75 -190q1 -1 2 -3l3 -3l1 -1l351 -337q18 -17 43.5 -17t43.5 18q282 268 351 336l1 1h-1q1 1 3 2q78 81 78 194zM892 356v0l-1 -1v0q-18 -17 -60.5 -58.5
t-90.5 -87.5t-94 -90t-76 -72l-30 -29q-6 -6 -14 -6t-14 6l-349 336l-2 1l-3 3v0q-65 69 -65 163q0 98 68.5 166.5t166.5 68.5q61 0 114 -29.5t84 -80.5q32 51 84.5 81t114.5 30q97 0 166 -69t69 -167q0 -96 -68 -165zM328 702q-76 0 -130 -54t-54 -131q0 -9 6 -15t15 -6
t15 6t6 15q0 59 41.5 100.5t100.5 41.5q9 0 15 6.5t6 15.5t-6 15t-15 6z" />
    <glyph glyph-name="icon" unicode="&#xe610;" 
d="M510.5 832q-91.5 0 -174.5 -35.5t-143 -95.5t-95.5 -143t-35.5 -174t35.5 -174t95.5 -143t143 -95.5t174.5 -35.5t174.5 35.5t143 95.5t95.5 143t35.5 174t-35.5 174t-95.5 143t-143 95.5t-174.5 35.5zM653 320q14 0 24 -10t10 -24t-10 -24t-24 -10h-101v-90
q0 -14 -10 -24t-23.5 -10t-23.5 10t-10 24v90h-101q-14 0 -24 10t-10 24t10 24t24 10h101v67h-101q-14 0 -24 10t-10 24t10 24t24 10h71l-67 92q-10 10 -10 24t9.5 24t23.5 10t24 -10l83 -108l84 108q10 10 23.5 10t23.5 -10t10 -24t-10 -24l-67 -92h71q14 0 24 -10t10 -24
t-10 -24t-24 -10h-101v-67h101z" />
    <glyph glyph-name="fangdajing" unicode="&#xe679;" 
d="M1012 -62l-272 273q97 116 97 267q0 114 -56 210t-152.5 152t-210 56t-210 -56t-152.5 -152t-56 -210t56 -210t152.5 -152t209.5 -56q152 0 268 97l272 -272q11 -12 27 -12t27 11.5t11 27t-11 26.5v0zM418 136q-92 0 -171 46t-125 124.5t-46 171.5t46 171.5t125 124.5
t171.5 46t171.5 -46t124.5 -124.5t45.5 -171.5t-45.5 -171.5t-124.5 -124.5t-172 -46v0z" />
    <glyph glyph-name="diannaozhuo" unicode="&#xe61a;" 
d="M394 503v68h188v254h-465v-254h167v-68h-225v-165h82v-422h34v422h332v-425h383v425h77v165h-573zM151 605v186h396v-186h-396zM360 571v-68h-41v68h41zM856 -53h-315v218h315v-218zM856 199h-315v133h315v-133zM933 372h-840v97h840v-97zM657 286h83v-20h-83v20zM657 77
h83v-20h-83v20z" />
    <glyph glyph-name="shujia-2" unicode="&#xe60e;" 
d="M251 479h-119v-48h119v48zM441 432h142v48h-142v-48zM441 289h142v48h-142v-48zM132 289h119v48h-119v-48zM37 741v-715q0 -30 20.5 -50.5t50.5 -20.5h166v48h-142q-20 0 -33.5 14t-13.5 34v666q0 20 13.5 34t33.5 14h142v48h-166q-30 0 -50.5 -21t-20.5 -51zM251 622
h-119v-48h119v48zM441 575h142v48h-142v-48zM773 432h119v48h-119v-48zM773 289h119v48h-119v-48zM892 622h-119v-48h119v48zM631 837h-238q-30 0 -50.5 -20.5t-20.5 -50.5v-762q0 -30 20.5 -50.5t50.5 -20.5h238q30 0 50.5 20.5t20.5 50.5v761q0 30 -21 51t-50 21zM654 27
q0 -20 -14 -34t-33 -14h-190q-20 0 -33.5 14t-13.5 34v714q0 20 14 34t33 14h190q20 0 33.5 -14t13.5 -34v-714zM916 813h-166v-48h166q12 0 17.5 -6.5t6 -13.5t0.5 -23v-5v-667v-8.5v-8.5v-7t-1 -7t-2 -5.5t-2.5 -5t-4 -3.5t-6 -2.5t-8.5 -0.5h-166v-48h166q30 0 50.5 20.5
t20.5 50.5v716q0 30 -20.5 51t-50.5 21z" />
    <glyph glyph-name="haofangtuo400iconfont2dayigui" unicode="&#xe6f6;" 
d="M796 854h-568q-48 0 -81.5 -34t-33.5 -81v-655q0 -43 29 -76q8 -9 19 -9.5t19.5 7t9 19t-6.5 19.5q-15 17 -15 40v187h318v-247h-142q-11 0 -19 -8t-8 -19.5t8 -19.5t19 -8h339q11 0 19 8t8 19.5t-8 19.5t-19 8h-143v247h316v-187q0 -27 -20 -45q-8 -7 -9 -18.5t7 -19.5
q8 -9 20 -9q11 0 19 7q38 34 38 85v655q0 47 -33.5 81t-81.5 34zM168 325v414q0 25 17.5 42.5t42.5 17.5h258v-474h-318zM540 325v474h256q25 0 42.5 -17.5t17.5 -42.5v-414h-316zM393 608q-11 0 -19 -8t-8 -19v-65q0 -12 8 -20t19 -8t19 8t8 20v65q0 11 -8 19t-19 8z
M633 608q-11 0 -19 -8t-8 -19v-65q0 -12 8 -20t19 -8t19 8t8 20v65q0 11 -8 19t-19 8zM397 148.5q0 11.5 -8 19.5t-19 8h-65q-12 0 -20 -8t-8 -19.5t8 -19.5t20 -8h65q11 0 19 8t8 19.5zM248.5 34q-11.5 0 -19.5 -8t-8 -19v-65q0 -12 8 -20t19.5 -8t19.5 8t8 20v65
q0 11 -8 19t-19.5 8zM771 34q-11 0 -19 -8t-8 -19v-65q0 -12 8 -20t19 -8t19 8t8 20v65q0 11 -8 19t-19 8zM719 176h-65q-11 0 -19 -8t-8 -19.5t8 -19.5t19 -8h65q12 0 20 8t8 19.5t-8 19.5t-20 8z" />
    <glyph glyph-name="deng" unicode="&#xe632;" 
d="M512 641q-96 0 -164.5 -69.5t-68.5 -167.5t68.5 -167t164.5 -69t164.5 69t68.5 167t-68.5 167.5t-164.5 69.5zM394 242q12 1 32.5 3.5t71 14.5t85.5 29q24 12 43 31t28 37.5t15 35.5t7 28l2 10q1 -6 1.5 -16t0.5 -37.5t-4 -50.5t-15.5 -48t-30.5 -37q-21 -14 -53 -19.5
t-63 -2.5t-58.5 7.5t-44.5 9.5zM512 683q12 0 20.5 8.5t8.5 20.5v69q0 12 -8.5 20.5t-20.5 8.5t-20.5 -8.5t-8.5 -20.5v-69q0 -12 8.5 -20.5t20.5 -8.5zM315.5 600.5q8.5 8.5 8.5 20.5t-8 21l-48 49q-9 8 -21 8t-20.5 -8.5t-8.5 -21t9 -20.5l48 -49q8 -8 20 -8t20.5 8.5z
M797.5 690.5q-8.5 8.5 -20.5 8.5t-21 -8l-48 -49q-8 -9 -8 -21t8.5 -20.5t20.5 -8.5t20 8l48 49q9 8 9 20.5t-8.5 21zM206 434h-68q-12 0 -20.5 -9t-8.5 -21t8.5 -20.5t20.5 -8.5h68q12 0 20.5 8.5t8.5 20.5t-8.5 21t-20.5 9zM886 434h-68q-12 0 -20.5 -9t-8.5 -21
t8.5 -20.5t20.5 -8.5h68q12 0 20.5 8.5t8.5 20.5t-8.5 21t-20.5 9zM394 100v-48h236v48h-236zM441 5l5 -47h132l5 47h-142z" />
    <glyph glyph-name="qiqiu" unicode="&#xe602;" 
d="M354 369h-62l19 49q-54 19 -89 71t-35 119q0 82 51 140t124 58q54 0 97.5 -33.5t63.5 -87.5q-67 -66 -67 -166q0 -36 10 -70q-35 -31 -82 -38l50 -42h-34q-18 -10 -30 -27l-5 -12q-3 -11 -3 -22q0 -14 4.5 -23t18.5 -22l2 -2q19 -19 26.5 -34.5t7.5 -39.5q0 -47 -32 -94
q-32 -46 -80 -73q5 3 13 8l12 9q-1 -1 -4 -2q-11 -6 -19 -10l38 26h-1h-1q-6 0 -10.5 4.5t-4.5 10.5q0 7 5 11q3 3 9 8q10 12 19 24q27 40 27 78q0 17 -5.5 27.5t-19.5 24.5l-3 2q-17 17 -24.5 31.5t-7.5 35.5q0 35 22 61v0zM363 731q6 0 10.5 4t4.5 11v0q0 6 -4.5 10
t-10.5 4q-57 0 -97 -44.5t-40 -108.5q0 -6 4.5 -10.5t10.5 -4.5t10 4.5t4 10.5q0 52 32 88t76 36v0zM639 274h-57l19 49q-54 19 -88.5 71.5t-34.5 118.5q0 82 50.5 140t122.5 58t123 -58t51 -140q0 -66 -34 -118t-87 -71l19 -50h-43q-3 -1 -5 -3q-24 -21 -24 -52
q0 -14 4.5 -23t18.5 -22l2 -2q19 -18 26.5 -34t7.5 -40q0 -47 -32 -94q-32 -46 -79 -73q5 3 12 8l12 9q-1 -1 -4 -2q-11 -6 -19 -9l38 25l-1 1l-1 -1q-6 0 -10.5 4.5t-4.5 10.5q0 7 5 11l9 9q10 11 19 23q27 40 27 78q0 17 -5.5 27.5t-19.5 24.5l-2 2q-18 18 -25.5 32
t-7.5 35q0 31 18 55v0zM653 636q6 0 10 4.5t4 10.5v0v0q0 6 -4 10.5t-10 4.5q-57 0 -96.5 -45t-39.5 -108q0 -7 4 -11t10 -4t10.5 4t4.5 10v1q0 51 31.5 87t75.5 36z" />
    <glyph glyph-name="1122-v2-11" unicode="&#xe633;" 
d="M832 86l-276 277l50 50q72 -63 161 -84.5t167 1.5q-11 -139 -102 -244zM192 86q-90 104 -102 240q64 25 140.5 8.5t140.5 -69.5zM609 504q-53 63 -69 139.5t9 140.5q136 -12 240 -101zM415 222q53 -64 69 -140.5t-9 -140.5q-136 12 -240 101zM934 400q-64 -25 -140.5 -9
t-140.5 69l179 179q90 -103 102 -239zM479 785q-23 -79 -1 -167.5t84 -161.5l-50 -50l-277 277q105 91 244 102zM192 639l276 -276l-50 -50q-72 62 -161 84t-167 -1q11 138 102 243zM545 -59q23 78 1 167t-84 161l50 50l277 -277q-105 -90 -244 -101v0z" />
    <glyph glyph-name="yishu" unicode="&#xe642;" 
d="M511.5 782q-113.5 0 -210 -56.5t-153 -153.5t-56.5 -210.5t56.5 -210.5t153 -153.5t209.5 -56.5q29 0 49.5 20.5t20.5 49.5q0 28 -17 46q-18 23 -18 45q0 29 20.5 49.5t49.5 20.5h84q97 0 165.5 69t68.5 166q-2 102 -59 188.5t-153.5 136.5t-210 50zM256.5 362
q-28.5 0 -49 20.5t-20.5 49.5t20.5 49.5t49 20.5t49 -20.5t20.5 -49.5t-20.5 -49.5t-49 -20.5zM396 547q-29 0 -49.5 21t-20.5 50t20.5 49.5t49.5 20.5t49.5 -20.5t20.5 -49.5t-20.5 -50t-49.5 -21zM626.5 547q-28.5 0 -49 21t-20.5 50t20.5 49.5t49 20.5t49 -20.5
t20.5 -49.5t-20.5 -50t-49 -21zM766 362q-29 0 -49.5 20.5t-20.5 49.5t20.5 49.5t49.5 20.5t49.5 -20.5t20.5 -49.5t-20.5 -49.5t-49.5 -20.5z" />
  </font>
</defs>
</svg>
